<svg width="76" height="76" viewBox="0 0 76 76" fill="none" xmlns="http://www.w3.org/2000/svg">
<rect opacity="0.136765" width="76" height="76" rx="11" fill="#717CFF"/>
<path d="M26.2271 36V34.3784H30.7358V18.7163L26.2271 20.6147V18.9932L30.7358 17.0947H32.4365V34.3784H36.9453V36H26.2271ZM43.168 36H41.3882L48.4678 18.7163H41.9023V21.2344H40.2017V17.0947H50.564V17.9121L43.168 36Z" fill="#717CFF"/>
<path d="M33.8262 57.082C33.8262 57.5098 33.7441 57.9111 33.5801 58.2861C33.4219 58.6611 33.2021 58.9893 32.9209 59.2705C32.6396 59.5518 32.3115 59.7744 31.9365 59.9385C31.5615 60.0967 31.1602 60.1758 30.7324 60.1758H29.8359C29.4082 60.1758 29.0039 60.0967 28.623 59.9385C28.248 59.7744 27.9199 59.5518 27.6387 59.2705C27.3574 58.9893 27.1348 58.6611 26.9707 58.2861C26.8125 57.9111 26.7334 57.5098 26.7334 57.082V50.3145C26.7334 49.8867 26.8125 49.4854 26.9707 49.1104C27.1348 48.7354 27.3574 48.4072 27.6387 48.126C27.9199 47.8447 28.248 47.625 28.623 47.4668C29.0039 47.3027 29.4082 47.2207 29.8359 47.2207H30.7324C31.1602 47.2207 31.5615 47.3027 31.9365 47.4668C32.3115 47.625 32.6396 47.8447 32.9209 48.126C33.2021 48.4072 33.4219 48.7354 33.5801 49.1104C33.7441 49.4854 33.8262 49.8867 33.8262 50.3145V57.082ZM32.6924 50.3145C32.6924 50.0332 32.6396 49.7725 32.5342 49.5322C32.4287 49.2861 32.2852 49.0723 32.1035 48.8906C31.9219 48.709 31.708 48.5654 31.4619 48.46C31.2217 48.3545 30.9609 48.3018 30.6797 48.3018H29.8887C29.6074 48.3018 29.3438 48.3545 29.0977 48.46C28.8574 48.5654 28.6436 48.709 28.4561 48.8906C28.2744 49.0723 28.1309 49.2861 28.0254 49.5322C27.9199 49.7725 27.8672 50.0332 27.8672 50.3145V57.082C27.8672 57.3633 27.9199 57.627 28.0254 57.873C28.1309 58.1133 28.2744 58.3271 28.4561 58.5146C28.6436 58.6963 28.8574 58.8398 29.0977 58.9453C29.3438 59.0508 29.6074 59.1035 29.8887 59.1035H30.6797C30.9609 59.1035 31.2217 59.0508 31.4619 58.9453C31.708 58.8398 31.9219 58.6963 32.1035 58.5146C32.2852 58.3271 32.4287 58.1133 32.5342 57.873C32.6396 57.627 32.6924 57.3633 32.6924 57.082V50.3145ZM42.1846 57.5303C42.1846 57.8936 42.1143 58.2363 41.9736 58.5586C41.8389 58.8809 41.6514 59.1621 41.4111 59.4023C41.1709 59.6426 40.8896 59.833 40.5674 59.9736C40.2451 60.1084 39.9023 60.1758 39.5391 60.1758H38.8184C38.4551 60.1758 38.1123 60.1084 37.79 59.9736C37.4678 59.833 37.1865 59.6426 36.9463 59.4023C36.7061 59.1621 36.5156 58.8809 36.375 58.5586C36.2402 58.2363 36.1729 57.8936 36.1729 57.5303V53.4697C36.1729 53.1064 36.2402 52.7637 36.375 52.4414C36.5156 52.1191 36.7061 51.8379 36.9463 51.5977C37.1865 51.3574 37.4678 51.1699 37.79 51.0352C38.1123 50.8945 38.4551 50.8242 38.8184 50.8242H39.5391C39.9023 50.8242 40.2451 50.8945 40.5674 51.0352C40.8896 51.1699 41.1709 51.3574 41.4111 51.5977C41.6514 51.8379 41.8389 52.1191 41.9736 52.4414C42.1143 52.7637 42.1846 53.1064 42.1846 53.4697V53.8301L41.1035 54.0059V53.4082C41.1035 53.1914 41.0625 52.9893 40.9805 52.8018C40.8984 52.6084 40.7871 52.4414 40.6465 52.3008C40.5059 52.1602 40.3389 52.0488 40.1455 51.9668C39.958 51.8848 39.7559 51.8438 39.5391 51.8438H38.8184C38.6016 51.8438 38.3965 51.8848 38.2031 51.9668C38.0156 52.0488 37.8516 52.1602 37.7109 52.3008C37.5703 52.4414 37.459 52.6084 37.377 52.8018C37.2949 52.9893 37.2539 53.1914 37.2539 53.4082V57.5918C37.2539 57.8086 37.2949 58.0137 37.377 58.207C37.459 58.3945 37.5703 58.5586 37.7109 58.6992C37.8516 58.8398 38.0156 58.9512 38.2031 59.0332C38.3965 59.1152 38.6016 59.1562 38.8184 59.1562H39.5391C39.7559 59.1562 39.958 59.1152 40.1455 59.0332C40.3389 58.9512 40.5059 58.8398 40.6465 58.6992C40.7871 58.5586 40.8984 58.3945 40.9805 58.207C41.0625 58.0137 41.1035 57.8086 41.1035 57.5918V56.9941L42.1846 57.1699V57.5303ZM47.625 60C47.2969 60 46.9863 59.9385 46.6934 59.8154C46.4062 59.6924 46.1543 59.5225 45.9375 59.3057C45.7266 59.0889 45.5566 58.8369 45.4277 58.5498C45.3047 58.2627 45.2432 57.9551 45.2432 57.627V52.0283H43.626V51H45.2432V48.8379L46.3242 48.6621V51H48.6094V52.0283H46.3242V57.6797C46.3242 57.8613 46.3564 58.0312 46.4209 58.1895C46.4912 58.3418 46.585 58.4766 46.7021 58.5938C46.8193 58.7109 46.957 58.8047 47.1152 58.875C47.2734 58.9395 47.4434 58.9717 47.625 58.9717H48.6094V60H47.625Z" fill="#717CFF"/>
</svg>
