<svg width="76" height="76" viewBox="0 0 76 76" fill="none" xmlns="http://www.w3.org/2000/svg">
<rect opacity="0.136765" width="76" height="76" rx="11" fill="#717CFF"/>
<path d="M30.5908 18.4526C30.1689 18.4526 29.7734 18.5317 29.4043 18.6899C29.0439 18.8481 28.7275 19.0635 28.4551 19.3359C28.1826 19.6084 27.9673 19.9292 27.8091 20.2983C27.6509 20.6587 27.5718 21.0498 27.5718 21.4717V22.2363L25.8711 21.9595V21.4717C25.8711 20.8301 25.9897 20.228 26.2271 19.6655C26.4731 19.103 26.8071 18.6108 27.229 18.189C27.6509 17.7671 28.1431 17.4375 28.7056 17.2002C29.2681 16.9541 29.8701 16.8311 30.5117 16.8311H31.3159C31.9575 16.8311 32.5596 16.9453 33.1221 17.1738C33.6934 17.4023 34.1899 17.7319 34.6118 18.1626C35.0337 18.5933 35.3633 19.1118 35.6006 19.7183C35.8467 20.3159 35.9697 20.9927 35.9697 21.7485C35.9697 22.4956 35.8555 23.2471 35.627 24.0029C35.4072 24.7588 35.1128 25.5015 34.7437 26.231C34.3833 26.9604 33.9658 27.668 33.4912 28.3535C33.0254 29.0391 32.5464 29.6851 32.0542 30.2915C30.9028 31.7065 29.5977 33.0688 28.1387 34.3784H36.1016V36H25.4624V34.6553C27.106 33.3018 28.5737 31.8999 29.8657 30.4497C30.4194 29.8257 30.96 29.1621 31.4873 28.459C32.0146 27.7559 32.4849 27.0352 32.8979 26.2969C33.311 25.5498 33.6406 24.7939 33.8867 24.0293C34.1416 23.2559 34.269 22.4956 34.269 21.7485C34.269 21.1948 34.1855 20.7114 34.0186 20.2983C33.8516 19.8853 33.6274 19.5425 33.3462 19.27C33.0649 18.9976 32.7397 18.7954 32.3706 18.6636C32.0103 18.5229 31.6323 18.4526 31.2368 18.4526H30.5908ZM49.707 31.623C49.707 32.2646 49.584 32.8667 49.3379 33.4292C49.1006 33.9917 48.771 34.4839 48.3491 34.9058C47.9272 35.3276 47.4351 35.6616 46.8726 35.9077C46.3101 36.145 45.708 36.2637 45.0664 36.2637H44.2622C43.6206 36.2637 43.0142 36.145 42.4429 35.9077C41.8804 35.6616 41.3882 35.3276 40.9663 34.9058C40.5444 34.4839 40.2104 33.9917 39.9644 33.4292C39.7271 32.8667 39.6084 32.2646 39.6084 31.623V31.1353L41.3091 30.8716V31.623C41.3091 32.0449 41.3882 32.4404 41.5464 32.8096C41.7046 33.1699 41.9199 33.4907 42.1924 33.772C42.4736 34.0444 42.7944 34.2598 43.1548 34.418C43.5239 34.5762 43.9194 34.6553 44.3413 34.6553H44.9873C45.4092 34.6553 45.8003 34.5762 46.1606 34.418C46.5298 34.2598 46.8506 34.0444 47.123 33.772C47.3955 33.4907 47.6108 33.1699 47.769 32.8096C47.9272 32.4404 48.0063 32.0449 48.0063 31.623V30.0542C48.0063 29.6323 47.9272 29.2412 47.769 28.8809C47.6108 28.5117 47.3955 28.1909 47.123 27.9185C46.8506 27.646 46.5298 27.4307 46.1606 27.2725C45.8003 27.1143 45.4092 27.0352 44.9873 27.0352H43.7217V25.4136H44.9873C45.4092 25.4136 45.8003 25.3345 46.1606 25.1763C46.5298 25.0181 46.8506 24.8027 47.123 24.5303C47.3955 24.2578 47.6108 23.9414 47.769 23.5811C47.9272 23.2119 48.0063 22.8164 48.0063 22.3945V21.4717C48.0063 21.0498 47.9272 20.6587 47.769 20.2983C47.6108 19.9292 47.3955 19.6084 47.123 19.3359C46.8506 19.0635 46.5298 18.8481 46.1606 18.6899C45.8003 18.5317 45.4092 18.4526 44.9873 18.4526H44.3413C43.9194 18.4526 43.5239 18.5317 43.1548 18.6899C42.7944 18.8481 42.4736 19.0635 42.1924 19.3359C41.9199 19.6084 41.7046 19.9292 41.5464 20.2983C41.3882 20.6587 41.3091 21.0498 41.3091 21.4717V22.2363L39.6084 21.9595V21.4717C39.6084 20.8301 39.7271 20.228 39.9644 19.6655C40.2104 19.103 40.5444 18.6108 40.9663 18.189C41.3882 17.7671 41.8804 17.4375 42.4429 17.2002C43.0142 16.9541 43.6206 16.8311 44.2622 16.8311H45.0664C45.708 16.8311 46.3101 16.9541 46.8726 17.2002C47.4351 17.4375 47.9272 17.7671 48.3491 18.189C48.771 18.6108 49.1006 19.103 49.3379 19.6655C49.584 20.228 49.707 20.8301 49.707 21.4717V22.1177C49.707 22.5659 49.6455 22.9966 49.5225 23.4097C49.4082 23.814 49.2412 24.1919 49.0215 24.5435C48.8105 24.895 48.5557 25.2158 48.2568 25.5059C47.958 25.7871 47.624 26.0288 47.2549 26.231C47.624 26.4243 47.958 26.666 48.2568 26.9561C48.5557 27.2373 48.8105 27.5537 49.0215 27.9053C49.2412 28.2568 49.4082 28.6392 49.5225 29.0522C49.6455 29.4565 49.707 29.8828 49.707 30.3311V31.623Z" fill="#717CFF"/>
<path d="M32.9648 56.9062C32.9648 57.334 32.8828 57.7354 32.7188 58.1104C32.5605 58.4854 32.3408 58.8135 32.0596 59.0947C31.7783 59.376 31.4473 59.5986 31.0664 59.7627C30.6914 59.9209 30.29 60 29.8623 60H25.8721V47.3965H29.8623C30.29 47.3965 30.6914 47.4785 31.0664 47.6426C31.4473 47.8008 31.7783 48.0205 32.0596 48.3018C32.3408 48.583 32.5605 48.9141 32.7188 49.2949C32.8828 49.6699 32.9648 50.0713 32.9648 50.499V56.9062ZM31.8311 50.499C31.8311 50.2178 31.7783 49.957 31.6729 49.7168C31.5674 49.4707 31.4209 49.2568 31.2334 49.0752C31.0518 48.8877 30.8379 48.7412 30.5918 48.6357C30.3516 48.5303 30.0908 48.4775 29.8096 48.4775H27.0059V58.9189H29.8096C30.0908 58.9189 30.3516 58.8662 30.5918 58.7607C30.8379 58.6553 31.0518 58.5117 31.2334 58.3301C31.4209 58.1484 31.5674 57.9375 31.6729 57.6973C31.7783 57.4512 31.8311 57.1875 31.8311 56.9062V50.499ZM41.3145 57.5303C41.3145 57.8936 41.2441 58.2363 41.1035 58.5586C40.9688 58.8809 40.7812 59.1621 40.541 59.4023C40.3008 59.6426 40.0195 59.833 39.6973 59.9736C39.375 60.1084 39.0322 60.1758 38.6689 60.1758H37.9482C37.585 60.1758 37.2422 60.1084 36.9199 59.9736C36.5977 59.833 36.3164 59.6426 36.0762 59.4023C35.8359 59.1621 35.6455 58.8809 35.5049 58.5586C35.3701 58.2363 35.3027 57.8936 35.3027 57.5303V53.4697C35.3027 53.1064 35.3701 52.7637 35.5049 52.4414C35.6455 52.1191 35.8359 51.8379 36.0762 51.5977C36.3164 51.3574 36.5977 51.1699 36.9199 51.0352C37.2422 50.8945 37.585 50.8242 37.9482 50.8242H38.6689C39.0322 50.8242 39.375 50.8945 39.6973 51.0352C40.0195 51.1699 40.3008 51.3574 40.541 51.5977C40.7812 51.8379 40.9688 52.1191 41.1035 52.4414C41.2441 52.7637 41.3145 53.1064 41.3145 53.4697V55.5879H36.3838V57.5918C36.3838 57.8086 36.4248 58.0137 36.5068 58.207C36.5889 58.3945 36.7002 58.5586 36.8408 58.6992C36.9814 58.8398 37.1455 58.9512 37.333 59.0332C37.5264 59.1152 37.7314 59.1562 37.9482 59.1562H38.6689C38.8857 59.1562 39.0879 59.1152 39.2754 59.0332C39.4688 58.9512 39.6357 58.8398 39.7764 58.6992C39.917 58.5586 40.0283 58.3945 40.1104 58.207C40.1924 58.0137 40.2334 57.8086 40.2334 57.5918V56.9941L41.3145 57.1699V57.5303ZM40.2334 53.4082C40.2334 53.1914 40.1924 52.9893 40.1104 52.8018C40.0283 52.6084 39.917 52.4414 39.7764 52.3008C39.6357 52.1602 39.4688 52.0488 39.2754 51.9668C39.0879 51.8848 38.8857 51.8438 38.6689 51.8438H37.9482C37.7314 51.8438 37.5264 51.8848 37.333 51.9668C37.1455 52.0488 36.9814 52.1602 36.8408 52.3008C36.7002 52.4414 36.5889 52.6084 36.5068 52.8018C36.4248 52.9893 36.3838 53.1914 36.3838 53.4082V54.7441H40.2334V53.4082ZM49.4883 57.5303C49.4883 57.8936 49.418 58.2363 49.2773 58.5586C49.1426 58.8809 48.9551 59.1621 48.7148 59.4023C48.4746 59.6426 48.1934 59.833 47.8711 59.9736C47.5488 60.1084 47.2061 60.1758 46.8428 60.1758H46.1221C45.7588 60.1758 45.416 60.1084 45.0938 59.9736C44.7715 59.833 44.4902 59.6426 44.25 59.4023C44.0098 59.1621 43.8193 58.8809 43.6787 58.5586C43.5439 58.2363 43.4766 57.8936 43.4766 57.5303V53.4697C43.4766 53.1064 43.5439 52.7637 43.6787 52.4414C43.8193 52.1191 44.0098 51.8379 44.25 51.5977C44.4902 51.3574 44.7715 51.1699 45.0938 51.0352C45.416 50.8945 45.7588 50.8242 46.1221 50.8242H46.8428C47.2061 50.8242 47.5488 50.8945 47.8711 51.0352C48.1934 51.1699 48.4746 51.3574 48.7148 51.5977C48.9551 51.8379 49.1426 52.1191 49.2773 52.4414C49.418 52.7637 49.4883 53.1064 49.4883 53.4697V53.8301L48.4072 54.0059V53.4082C48.4072 53.1914 48.3662 52.9893 48.2842 52.8018C48.2021 52.6084 48.0908 52.4414 47.9502 52.3008C47.8096 52.1602 47.6426 52.0488 47.4492 51.9668C47.2617 51.8848 47.0596 51.8438 46.8428 51.8438H46.1221C45.9053 51.8438 45.7002 51.8848 45.5068 51.9668C45.3193 52.0488 45.1553 52.1602 45.0146 52.3008C44.874 52.4414 44.7627 52.6084 44.6807 52.8018C44.5986 52.9893 44.5576 53.1914 44.5576 53.4082V57.5918C44.5576 57.8086 44.5986 58.0137 44.6807 58.207C44.7627 58.3945 44.874 58.5586 45.0146 58.6992C45.1553 58.8398 45.3193 58.9512 45.5068 59.0332C45.7002 59.1152 45.9053 59.1562 46.1221 59.1562H46.8428C47.0596 59.1562 47.2617 59.1152 47.4492 59.0332C47.6426 58.9512 47.8096 58.8398 47.9502 58.6992C48.0908 58.5586 48.2021 58.3945 48.2842 58.207C48.3662 58.0137 48.4072 57.8086 48.4072 57.5918V56.9941L49.4883 57.1699V57.5303Z" fill="#717CFF"/>
</svg>
