<svg width="196" height="28" viewBox="0 0 196 28" fill="none" xmlns="http://www.w3.org/2000/svg">
<path d="M69.5538 19V18.0391H72.2257V8.75781L69.5538 9.88281V8.92188L72.2257 7.79688H73.2335V18.0391H75.9054V19H69.5538ZM84.0998 16.4062C84.0998 16.7865 84.0269 17.1432 83.8811 17.4766C83.7405 17.8099 83.5451 18.1016 83.2951 18.3516C83.0451 18.6016 82.7535 18.7995 82.4201 18.9453C82.0868 19.0859 81.73 19.1562 81.3498 19.1562H80.8733C80.4931 19.1562 80.1337 19.0859 79.7951 18.9453C79.4618 18.7995 79.1701 18.6016 78.9201 18.3516C78.6701 18.1016 78.4722 17.8099 78.3264 17.4766C78.1858 17.1432 78.1155 16.7865 78.1155 16.4062V10.3906C78.1155 10.0104 78.1858 9.65365 78.3264 9.32031C78.4722 8.98698 78.6701 8.69531 78.9201 8.44531C79.1701 8.19531 79.4618 8 79.7951 7.85938C80.1337 7.71354 80.4931 7.64062 80.8733 7.64062H81.3498C81.73 7.64062 82.0868 7.71354 82.4201 7.85938C82.7535 8 83.0451 8.19531 83.2951 8.44531C83.5451 8.69531 83.7405 8.98698 83.8811 9.32031C84.0269 9.65365 84.0998 10.0104 84.0998 10.3906V16.4062ZM83.092 10.3906C83.092 10.1406 83.0451 9.90885 82.9514 9.69531C82.8576 9.47656 82.73 9.28646 82.5686 9.125C82.4071 8.96354 82.217 8.83594 81.9983 8.74219C81.7847 8.64844 81.553 8.60156 81.303 8.60156H80.9201C80.6701 8.60156 80.4358 8.64844 80.217 8.74219C80.0035 8.83594 79.8134 8.96354 79.6467 9.125C79.4852 9.28646 79.3576 9.47656 79.2639 9.69531C79.1701 9.90885 79.1233 10.1406 79.1233 10.3906V16.4062C79.1233 16.6562 79.1701 16.8906 79.2639 17.1094C79.3576 17.3229 79.4852 17.513 79.6467 17.6797C79.8134 17.8411 80.0035 17.9688 80.217 18.0625C80.4358 18.1562 80.6701 18.2031 80.9201 18.2031H81.303C81.553 18.2031 81.7847 18.1562 81.9983 18.0625C82.217 17.9688 82.4071 17.8411 82.5686 17.6797C82.73 17.513 82.8576 17.3229 82.9514 17.1094C83.0451 16.8906 83.092 16.6562 83.092 16.4062V10.3906ZM86.7943 12.2031V11H87.9974V12.2031H86.7943ZM86.7943 19V17.7969H87.9974V19H86.7943ZM96.6606 16.4062C96.6606 16.7865 96.5877 17.1432 96.4418 17.4766C96.3012 17.8099 96.1059 18.1016 95.8559 18.3516C95.6059 18.6016 95.3142 18.7995 94.9809 18.9453C94.6476 19.0859 94.2908 19.1562 93.9106 19.1562H93.434C93.0538 19.1562 92.6944 19.0859 92.3559 18.9453C92.0226 18.7995 91.7309 18.6016 91.4809 18.3516C91.2309 18.1016 91.033 17.8099 90.8872 17.4766C90.7465 17.1432 90.6762 16.7865 90.6762 16.4062V10.3906C90.6762 10.0104 90.7465 9.65365 90.8872 9.32031C91.033 8.98698 91.2309 8.69531 91.4809 8.44531C91.7309 8.19531 92.0226 8 92.3559 7.85938C92.6944 7.71354 93.0538 7.64062 93.434 7.64062H93.9106C94.2908 7.64062 94.6476 7.71354 94.9809 7.85938C95.3142 8 95.6059 8.19531 95.8559 8.44531C96.1059 8.69531 96.3012 8.98698 96.4418 9.32031C96.5877 9.65365 96.6606 10.0104 96.6606 10.3906V16.4062ZM95.6528 10.3906C95.6528 10.1406 95.6059 9.90885 95.5122 9.69531C95.4184 9.47656 95.2908 9.28646 95.1293 9.125C94.9679 8.96354 94.7778 8.83594 94.559 8.74219C94.3455 8.64844 94.1137 8.60156 93.8637 8.60156H93.4809C93.2309 8.60156 92.9965 8.64844 92.7778 8.74219C92.5642 8.83594 92.3741 8.96354 92.2075 9.125C92.046 9.28646 91.9184 9.47656 91.8247 9.69531C91.7309 9.90885 91.684 10.1406 91.684 10.3906V16.4062C91.684 16.6562 91.7309 16.8906 91.8247 17.1094C91.9184 17.3229 92.046 17.513 92.2075 17.6797C92.3741 17.8411 92.5642 17.9688 92.7778 18.0625C92.9965 18.1562 93.2309 18.2031 93.4809 18.2031H93.8637C94.1137 18.2031 94.3455 18.1562 94.559 18.0625C94.7778 17.9688 94.9679 17.8411 95.1293 17.6797C95.2908 17.513 95.4184 17.3229 95.5122 17.1094C95.6059 16.8906 95.6528 16.6562 95.6528 16.4062V10.3906ZM105.339 16.4062C105.339 16.7865 105.266 17.1432 105.121 17.4766C104.98 17.8099 104.785 18.1016 104.535 18.3516C104.285 18.6016 103.993 18.7995 103.66 18.9453C103.326 19.0859 102.97 19.1562 102.589 19.1562H102.113C101.733 19.1562 101.373 19.0859 101.035 18.9453C100.701 18.7995 100.41 18.6016 100.16 18.3516C99.9097 18.1016 99.7118 17.8099 99.566 17.4766C99.4254 17.1432 99.355 16.7865 99.355 16.4062V10.3906C99.355 10.0104 99.4254 9.65365 99.566 9.32031C99.7118 8.98698 99.9097 8.69531 100.16 8.44531C100.41 8.19531 100.701 8 101.035 7.85938C101.373 7.71354 101.733 7.64062 102.113 7.64062H102.589C102.97 7.64062 103.326 7.71354 103.66 7.85938C103.993 8 104.285 8.19531 104.535 8.44531C104.785 8.69531 104.98 8.98698 105.121 9.32031C105.266 9.65365 105.339 10.0104 105.339 10.3906V16.4062ZM104.332 10.3906C104.332 10.1406 104.285 9.90885 104.191 9.69531C104.097 9.47656 103.97 9.28646 103.808 9.125C103.647 8.96354 103.457 8.83594 103.238 8.74219C103.024 8.64844 102.793 8.60156 102.543 8.60156H102.16C101.91 8.60156 101.675 8.64844 101.457 8.74219C101.243 8.83594 101.053 8.96354 100.886 9.125C100.725 9.28646 100.597 9.47656 100.503 9.69531C100.41 9.90885 100.363 10.1406 100.363 10.3906V16.4062C100.363 16.6562 100.41 16.8906 100.503 17.1094C100.597 17.3229 100.725 17.513 100.886 17.6797C101.053 17.8411 101.243 17.9688 101.457 18.0625C101.675 18.1562 101.91 18.2031 102.16 18.2031H102.543C102.793 18.2031 103.024 18.1562 103.238 18.0625C103.457 17.9688 103.647 17.8411 103.808 17.6797C103.97 17.513 104.097 17.3229 104.191 17.1094C104.285 16.8906 104.332 16.6562 104.332 16.4062V10.3906ZM116.533 16.3906H112.986L112.252 19H111.205L114.486 7.79688H115.017L118.314 19H117.275L116.533 16.3906ZM113.26 15.4297H116.267L114.791 10.2656L114.76 9.85156L114.728 10.2656L113.26 15.4297ZM127.095 19V11.3203L127.024 11.7969L124.423 19H123.891L121.266 11.7969L121.204 11.3203V19H120.196V7.79688H120.72L124.118 16.9844L124.149 17.3984L124.181 16.9844L127.571 7.79688H128.102V19H127.095ZM134.757 14.1016V13.1953H137.749V14.1016H134.757ZM146.81 8.60156C146.56 8.60156 146.326 8.64844 146.107 8.74219C145.893 8.83594 145.706 8.96354 145.544 9.125C145.383 9.28646 145.255 9.47656 145.161 9.69531C145.068 9.90885 145.021 10.1406 145.021 10.3906V10.8438L144.013 10.6797V10.3906C144.013 10.0104 144.083 9.65365 144.224 9.32031C144.37 8.98698 144.568 8.69531 144.818 8.44531C145.068 8.19531 145.359 8 145.693 7.85938C146.026 7.71354 146.383 7.64062 146.763 7.64062H147.24C147.62 7.64062 147.977 7.70833 148.31 7.84375C148.648 7.97917 148.943 8.17448 149.193 8.42969C149.443 8.6849 149.638 8.99219 149.779 9.35156C149.924 9.70573 149.997 10.1068 149.997 10.5547C149.997 10.9974 149.93 11.4427 149.794 11.8906C149.664 12.3385 149.49 12.7786 149.271 13.2109C149.057 13.6432 148.81 14.0625 148.529 14.4688C148.253 14.875 147.969 15.2578 147.677 15.6172C146.995 16.4557 146.221 17.263 145.357 18.0391H150.076V19H143.771V18.2031C144.745 17.401 145.615 16.5703 146.38 15.7109C146.708 15.3411 147.029 14.9479 147.341 14.5312C147.654 14.1146 147.932 13.6875 148.177 13.25C148.422 12.8073 148.617 12.3594 148.763 11.9062C148.914 11.4479 148.99 10.9974 148.99 10.5547C148.99 10.2266 148.94 9.9401 148.841 9.69531C148.742 9.45052 148.609 9.2474 148.443 9.08594C148.276 8.92448 148.083 8.80469 147.865 8.72656C147.651 8.64323 147.427 8.60156 147.193 8.60156H146.81ZM152.598 12.2031V11H153.801V12.2031H152.598ZM152.598 19V17.7969H153.801V19H152.598ZM162.464 16.4062C162.464 16.7865 162.391 17.1432 162.246 17.4766C162.105 17.8099 161.91 18.1016 161.66 18.3516C161.41 18.6016 161.118 18.7995 160.785 18.9453C160.451 19.0859 160.095 19.1562 159.714 19.1562H159.238C158.858 19.1562 158.498 19.0859 158.16 18.9453C157.826 18.7995 157.535 18.6016 157.285 18.3516C157.035 18.1016 156.837 17.8099 156.691 17.4766C156.55 17.1432 156.48 16.7865 156.48 16.4062V10.3906C156.48 10.0104 156.55 9.65365 156.691 9.32031C156.837 8.98698 157.035 8.69531 157.285 8.44531C157.535 8.19531 157.826 8 158.16 7.85938C158.498 7.71354 158.858 7.64062 159.238 7.64062H159.714C160.095 7.64062 160.451 7.71354 160.785 7.85938C161.118 8 161.41 8.19531 161.66 8.44531C161.91 8.69531 162.105 8.98698 162.246 9.32031C162.391 9.65365 162.464 10.0104 162.464 10.3906V16.4062ZM161.457 10.3906C161.457 10.1406 161.41 9.90885 161.316 9.69531C161.222 9.47656 161.095 9.28646 160.933 9.125C160.772 8.96354 160.582 8.83594 160.363 8.74219C160.149 8.64844 159.918 8.60156 159.668 8.60156H159.285C159.035 8.60156 158.8 8.64844 158.582 8.74219C158.368 8.83594 158.178 8.96354 158.011 9.125C157.85 9.28646 157.722 9.47656 157.628 9.69531C157.535 9.90885 157.488 10.1406 157.488 10.3906V16.4062C157.488 16.6562 157.535 16.8906 157.628 17.1094C157.722 17.3229 157.85 17.513 158.011 17.6797C158.178 17.8411 158.368 17.9688 158.582 18.0625C158.8 18.1562 159.035 18.2031 159.285 18.2031H159.668C159.918 18.2031 160.149 18.1562 160.363 18.0625C160.582 17.9688 160.772 17.8411 160.933 17.6797C161.095 17.513 161.222 17.3229 161.316 17.1094C161.41 16.8906 161.457 16.6562 161.457 16.4062V10.3906ZM171.143 16.4062C171.143 16.7865 171.07 17.1432 170.924 17.4766C170.784 17.8099 170.589 18.1016 170.339 18.3516C170.089 18.6016 169.797 18.7995 169.464 18.9453C169.13 19.0859 168.773 19.1562 168.393 19.1562H167.917C167.536 19.1562 167.177 19.0859 166.839 18.9453C166.505 18.7995 166.214 18.6016 165.964 18.3516C165.714 18.1016 165.516 17.8099 165.37 17.4766C165.229 17.1432 165.159 16.7865 165.159 16.4062V10.3906C165.159 10.0104 165.229 9.65365 165.37 9.32031C165.516 8.98698 165.714 8.69531 165.964 8.44531C166.214 8.19531 166.505 8 166.839 7.85938C167.177 7.71354 167.536 7.64062 167.917 7.64062H168.393C168.773 7.64062 169.13 7.71354 169.464 7.85938C169.797 8 170.089 8.19531 170.339 8.44531C170.589 8.69531 170.784 8.98698 170.924 9.32031C171.07 9.65365 171.143 10.0104 171.143 10.3906V16.4062ZM170.135 10.3906C170.135 10.1406 170.089 9.90885 169.995 9.69531C169.901 9.47656 169.773 9.28646 169.612 9.125C169.451 8.96354 169.26 8.83594 169.042 8.74219C168.828 8.64844 168.596 8.60156 168.346 8.60156H167.964C167.714 8.60156 167.479 8.64844 167.26 8.74219C167.047 8.83594 166.857 8.96354 166.69 9.125C166.529 9.28646 166.401 9.47656 166.307 9.69531C166.214 9.90885 166.167 10.1406 166.167 10.3906V16.4062C166.167 16.6562 166.214 16.8906 166.307 17.1094C166.401 17.3229 166.529 17.513 166.69 17.6797C166.857 17.8411 167.047 17.9688 167.26 18.0625C167.479 18.1562 167.714 18.2031 167.964 18.2031H168.346C168.596 18.2031 168.828 18.1562 169.042 18.0625C169.26 17.9688 169.451 17.8411 169.612 17.6797C169.773 17.513 169.901 17.3229 169.995 17.1094C170.089 16.8906 170.135 16.6562 170.135 16.4062V10.3906ZM184.438 11.9453C184.438 12.3255 184.365 12.6823 184.22 13.0156C184.079 13.349 183.884 13.6406 183.634 13.8906C183.384 14.1406 183.089 14.3385 182.751 14.4844C182.418 14.625 182.061 14.6953 181.681 14.6953H179.141V19H178.134V7.79688H181.681C182.061 7.79688 182.418 7.86979 182.751 8.01562C183.089 8.15625 183.384 8.35156 183.634 8.60156C183.884 8.85156 184.079 9.14583 184.22 9.48438C184.365 9.81771 184.438 10.1745 184.438 10.5547V11.9453ZM183.431 10.5547C183.431 10.3047 183.384 10.0729 183.29 9.85938C183.196 9.64062 183.066 9.45052 182.899 9.28906C182.738 9.1224 182.548 8.99219 182.329 8.89844C182.115 8.80469 181.884 8.75781 181.634 8.75781H179.141V13.7344H181.634C181.884 13.7344 182.115 13.6875 182.329 13.5938C182.548 13.5 182.738 13.3724 182.899 13.2109C183.066 13.0495 183.196 12.862 183.29 12.6484C183.384 12.4297 183.431 12.1953 183.431 11.9453V10.5547ZM193.711 19V11.3203L193.641 11.7969L191.039 19H190.508L187.883 11.7969L187.82 11.3203V19H186.812V7.79688H187.336L190.734 16.9844L190.766 17.3984L190.797 16.9844L194.188 7.79688H194.719V19H193.711Z" fill="#373737"/>
<path fill-rule="evenodd" clip-rule="evenodd" d="M40 22.3333C44.6024 22.3333 48.3334 18.6023 48.3334 14C48.3334 9.39761 44.6024 5.66666 40 5.66666C35.3976 5.66666 31.6667 9.39761 31.6667 14C31.6667 18.6023 35.3976 22.3333 40 22.3333ZM40 20.6667C43.6819 20.6667 46.6667 17.6819 46.6667 14C46.6667 10.3181 43.6819 7.33332 40 7.33332C36.3181 7.33332 33.3334 10.3181 33.3334 14C33.3334 17.6819 36.3181 20.6667 40 20.6667ZM39.1667 9.83332H37.5V15.6667H43.3334V14H39.1667V9.83332Z" fill="#2D2D2D"/>
<mask id="mask0" mask-type="alpha" maskUnits="userSpaceOnUse" x="31" y="5" width="18" height="18">
<path fill-rule="evenodd" clip-rule="evenodd" d="M40 22.3333C44.6024 22.3333 48.3334 18.6023 48.3334 14C48.3334 9.39761 44.6024 5.66666 40 5.66666C35.3976 5.66666 31.6667 9.39761 31.6667 14C31.6667 18.6023 35.3976 22.3333 40 22.3333ZM40 20.6667C43.6819 20.6667 46.6667 17.6819 46.6667 14C46.6667 10.3181 43.6819 7.33332 40 7.33332C36.3181 7.33332 33.3334 10.3181 33.3334 14C33.3334 17.6819 36.3181 20.6667 40 20.6667ZM39.1667 9.83332H37.5V15.6667H43.3334V14H39.1667V9.83332Z" fill="white"/>
</mask>
<g mask="url(#mask0)">
</g>
</svg>
